<svg width="41" height="57" viewBox="0 0 41 57" fill="none" xmlns="http://www.w3.org/2000/svg">
<path d="M36.25 56.0625H4.75C3.70603 56.0615 2.70512 55.6463 1.96692 54.9081C1.22872 54.1699 0.813542 53.169 0.8125 52.125V4.875C0.813542 3.83103 1.22872 2.83012 1.96692 2.09192C2.70512 1.35372 3.70603 0.938542 4.75 0.9375H36.25C37.294 0.938542 38.2949 1.35372 39.0331 2.09192C39.7713 2.83012 40.1865 3.83103 40.1875 4.875V37.5917L30.3438 32.6698L20.5 37.5917V4.875H4.75V52.125H36.25V44.25H40.1875V52.125C40.1859 53.1688 39.7706 54.1694 39.0325 54.9075C38.2944 55.6456 37.2938 56.0609 36.25 56.0625ZM30.3438 28.2677L36.25 31.2208V4.875H24.4375V31.2208L30.3438 28.2677Z" fill="white"/>
</svg>
