<svg width="215" height="251" viewBox="0 0 215 251" fill="none" xmlns="http://www.w3.org/2000/svg">
<path d="M0.76 0.6H6.32V6H0.76V0.6ZM30.4928 0.6H36.0528V6H30.4928V0.6ZM60.2256 0.6H65.7856V6H60.2256V0.6ZM89.9584 0.6H95.5184V6H89.9584V0.6ZM119.691 0.6H125.251V6H119.691V0.6ZM149.424 0.6H154.984V6H149.424V0.6ZM179.157 0.6H184.717V6H179.157V0.6ZM208.89 0.6H214.45V6H208.89V0.6ZM0.76 49.6H6.32V55H0.76V49.6ZM30.4928 49.6H36.0528V55H30.4928V49.6ZM60.2256 49.6H65.7856V55H60.2256V49.6ZM89.9584 49.6H95.5184V55H89.9584V49.6ZM119.691 49.6H125.251V55H119.691V49.6ZM149.424 49.6H154.984V55H149.424V49.6ZM179.157 49.6H184.717V55H179.157V49.6ZM208.89 49.6H214.45V55H208.89V49.6ZM0.76 98.6H6.32V104H0.76V98.6ZM30.4928 98.6H36.0528V104H30.4928V98.6ZM60.2256 98.6H65.7856V104H60.2256V98.6ZM89.9584 98.6H95.5184V104H89.9584V98.6ZM119.691 98.6H125.251V104H119.691V98.6ZM149.424 98.6H154.984V104H149.424V98.6ZM179.157 98.6H184.717V104H179.157V98.6ZM208.89 98.6H214.45V104H208.89V98.6ZM0.76 147.6H6.32V153H0.76V147.6ZM30.4928 147.6H36.0528V153H30.4928V147.6ZM60.2256 147.6H65.7856V153H60.2256V147.6ZM89.9584 147.6H95.5184V153H89.9584V147.6ZM119.691 147.6H125.251V153H119.691V147.6ZM149.424 147.6H154.984V153H149.424V147.6ZM179.157 147.6H184.717V153H179.157V147.6ZM208.89 147.6H214.45V153H208.89V147.6ZM0.76 196.6H6.32V202H0.76V196.6ZM30.4928 196.6H36.0528V202H30.4928V196.6ZM60.2256 196.6H65.7856V202H60.2256V196.6ZM89.9584 196.6H95.5184V202H89.9584V196.6ZM119.691 196.6H125.251V202H119.691V196.6ZM149.424 196.6H154.984V202H149.424V196.6ZM179.157 196.6H184.717V202H179.157V196.6ZM208.89 196.6H214.45V202H208.89V196.6ZM0.76 245.6H6.32V251H0.76V245.6ZM30.4928 245.6H36.0528V251H30.4928V245.6ZM60.2256 245.6H65.7856V251H60.2256V245.6ZM89.9584 245.6H95.5184V251H89.9584V245.6ZM119.691 245.6H125.251V251H119.691V245.6ZM149.424 245.6H154.984V251H149.424V245.6ZM179.157 245.6H184.717V251H179.157V245.6ZM208.89 245.6H214.45V251H208.89V245.6Z" fill="#219653"/>
</svg>
