<svg width="53" height="41" viewBox="0 0 53 41" fill="none" xmlns="http://www.w3.org/2000/svg">
<path d="M0.875 0.8125V4.75H44.1875V36.25H16.625V40.1875H52.0625V36.25H48.125V0.8125H0.875ZM8.75394 6.71875C6.66723 6.72601 4.668 7.5579 3.19209 9.03307C1.71619 10.5082 0.883301 12.507 0.875 14.5938C0.875 18.923 4.42662 22.4688 8.75394 22.4688C10.8396 22.4604 12.8374 21.628 14.3118 20.1528C15.7863 18.6776 16.6177 16.6794 16.625 14.5938C16.625 10.2684 13.0773 6.71875 8.75394 6.71875ZM20.5625 8.6875V12.625H30.4062V8.6875H20.5625ZM34.3438 8.6875V12.625H40.25V8.6875H34.3438ZM8.75394 10.6562C10.9471 10.6562 12.6875 12.3947 12.6875 14.5938C12.6875 16.7987 10.9491 18.5312 8.75394 18.5312C6.54894 18.5312 4.8125 16.7987 4.8125 14.5938C4.8125 12.3947 6.55091 10.6562 8.75394 10.6562ZM20.5625 16.5625V20.5H40.25V16.5625H20.5625ZM0.875 24.4375V40.1875H4.8125V28.375H10.7188V40.1875H14.6562V29.6704L18.7197 31.8203C19.8715 32.4306 21.2555 32.4287 22.4053 31.8203V31.8243L29.3549 28.1486L27.5181 24.6639L20.5664 28.3396L14.4712 25.1226C13.6205 24.6732 12.6731 24.438 11.711 24.4375H0.875Z" fill="white"/>
</svg>
