<svg width="45" height="36" viewBox="0 0 45 36" fill="none" xmlns="http://www.w3.org/2000/svg">
<g clip-path="url(#clip0)">
<path d="M14.6246 24.75C14.4566 24.75 14.2885 24.7746 14.1282 24.8266C13.217 25.1227 12.2586 25.3125 11.2496 25.3125C10.2406 25.3125 9.28228 25.1227 8.37033 24.8266C8.21002 24.7746 8.04267 24.75 7.87463 24.75C3.51103 24.75 -0.0235778 28.2994 -0.000374693 32.6686C0.00946906 34.515 1.52752 36 3.37463 36H19.1246C20.9717 36 22.4898 34.515 22.4996 32.6686C22.5228 28.2994 18.9882 24.75 14.6246 24.75ZM11.2496 22.5C14.9776 22.5 17.9996 19.478 17.9996 15.75C17.9996 12.022 14.9776 9 11.2496 9C7.52166 9 4.49963 12.022 4.49963 15.75C4.49963 19.478 7.52166 22.5 11.2496 22.5ZM41.6246 0H14.6246C12.7635 0 11.2496 1.56445 11.2496 3.4868V6.75C12.8963 6.75 14.4207 7.22672 15.7496 8.00156V4.5H40.4996V24.75H35.9996V20.25H26.9996V24.75H21.639C22.982 25.9235 23.9678 27.4732 24.4297 29.25H41.6246C43.4858 29.25 44.9996 27.6855 44.9996 25.7632V3.4868C44.9996 1.56445 43.4858 0 41.6246 0Z" fill="#B8B8B8"/>
</g>
<defs>
<clipPath id="clip0">
<rect width="45" height="36" fill="white"/>
</clipPath>
</defs>
</svg>
