<svg width="65" height="38" viewBox="0 0 65 38" fill="none" xmlns="http://www.w3.org/2000/svg">
<path d="M32.4999 0.802734L31.8641 0.995703L6.4735 9.50258L0.700684 11.4059L4.0624 12.4824V30.2559C2.84975 30.9607 2.03115 32.2465 2.03115 33.7496C2.03115 34.827 2.45916 35.8604 3.22103 36.6222C3.9829 37.3841 5.01621 37.8121 6.09365 37.8121C7.17109 37.8121 8.20441 37.3841 8.96627 36.6222C9.72814 35.8604 10.1562 34.827 10.1562 33.7496C10.1562 32.2465 9.33756 30.9607 8.1249 30.2559V13.884L12.1874 15.2145V25.6246C12.1874 27.2902 13.203 28.6715 14.4096 29.6262C15.6162 30.5748 17.1152 31.2451 18.9149 31.8463C22.5183 33.0448 27.2674 33.7496 32.4999 33.7496C37.7324 33.7496 42.4815 33.0468 46.0849 31.8443C47.8846 31.2451 49.3837 30.5748 50.5902 29.6241C51.7968 28.6715 52.8124 27.2902 52.8124 25.6246V15.2145L58.5263 13.3091L64.2991 11.4059L58.5243 9.50055L33.1337 0.995703L32.4999 0.802734ZM32.4999 5.0582L51.5429 11.4059L32.4999 17.7535L13.4569 11.4059L32.4999 5.0582ZM16.2499 16.6119L31.8662 21.816L32.4999 22.0069L33.1357 21.814L48.7499 16.6099V25.6246C48.7499 25.6449 48.758 25.8805 48.1141 26.3863C47.4722 26.8941 46.3205 27.534 44.8133 28.0377C41.803 29.0391 37.3647 29.6871 32.4999 29.6871C27.6351 29.6871 23.1968 29.0412 20.1844 28.0357C18.6813 27.534 17.5276 26.8921 16.8857 26.3863C16.2397 25.8785 16.2499 25.6449 16.2499 25.6246V16.6099V16.6119Z" fill="white"/>
</svg>
